# xmcd
#
# Track frame offsets:
#	150
#	21173
#	43589
#	62587
#	86278
#	106600
#	124723
#	146511
#	165731
#	182935
#	205350
#
# Disc length: 3030 seconds
#
# Revision: 1
# Processed by: cddbd v1.5.2PL0 Copyright (c) Steve Scherf et al.
# Submitted via: EasyCDDAExtractor 15.3.0.1
#
DISCID=8e0bd40b
DTITLE=Diego El Cigala - Indestructible
DYEAR=2016
DGENRE=World
TTITLE0=Moreno Soy
TTITLE1=Juanito Alimana
TTITLE2=Conversacion en Tiempo de Bolero
TTITLE3=El Paso de Encarnacion
TTITLE4=Periodico de Ayer
TTITLE5=Fiesta Para Bebo
TTITLE6=Se Nos Rompio el Amor
TTITLE7=Indestructible
TTITLE8=El Raton
TTITLE9=Hacha y Machete
TTITLE10=Como Fue
EXTD=
EXTT0=
EXTT1=
EXTT2=
EXTT3=
EXTT4=
EXTT5=
EXTT6=
EXTT7=
EXTT8=
EXTT9=
EXTT10=
PLAYORDER=
